<?xml version="1.0" encoding="utf-8"?>
<svg version="1.1" id="Layer_1" xmlns="http://www.w3.org/2000/svg" xmlns:xlink="http://www.w3.org/1999/xlink" x="0px" y="0px"
	 viewBox="0 0 512 512" style="enable-background:new 0 0 512 512;" xml:space="preserve">
<style type="text/css">
	.st0{fill:#FFFFFF;}
	.st1{fill:#3155A6;}
</style>
<g>
	<path class="st0" d="M295.7,385.7c-4.5-9.1-12.9-17.3-21.7-21.4l-6-2.7v-64.3V233h-12h-12v64.3v64.3l-6,2.7
		c-8.8,4.1-17.2,12.3-21.7,21.4c-3.2,6.5-3.7,8.6-4.1,16.3c-0.6,11.4,2,20.3,8.1,28.6c5.2,7,9.4,10.4,18.5,14.7
		c6.2,3,7.5,3.2,17.2,3.2s11-0.2,17.2-3.2c9.1-4.3,13.3-7.7,18.5-14.7c6.1-8.3,8.7-17.2,8.1-28.6
		C299.4,394.3,298.9,392.2,295.7,385.7z"/>
	<path class="st0" d="M291.1,353l-4-2.5l-0.1-16.7v-16.7l10.8-0.3l10.7-0.3v-4v-4l-10.7-0.3l-10.8-0.3V283v-25h11h11v-4v-4h-11h-11
		v-25v-24.9l10.8-0.3l10.7-0.3l0.3-3.6c0.3-3.4,0.1-3.7-2.9-4.3c-1.7-0.3-6.7-0.6-11-0.6H287v-25v-25h11h11v-4v-4h-11h-11v-30.8
		c0-37.6-0.2-38.6-9.3-47.7c-4.4-4.3-7.7-6.7-11.1-7.8c-5.9-2-15.6-2.1-20.9-0.3c-8.4,3-14.8,9.1-18.6,17.7c-1.9,4.3-2,8-2.7,145.7
		L223.7,351l-3.9,2.6c-6.4,4.5-15.1,14.5-19,21.9c-5.1,9.8-6.8,17.3-6.8,30.1c0,9.4,0.4,12,2.9,19.2c8.9,25.6,32.2,42.2,59.1,42.2
		c10.6,0,18.1-1.8,28.6-7c13.6-6.6,24.3-18.7,30.1-33.8c2.1-5.3,2.7-9.1,3.1-18.1c0.6-13.7-0.6-19.7-5.9-30.9
		C307.6,368.2,298.3,357.4,291.1,353z M304.1,421.4c-11.2,31.1-48.8,44-75.8,26.1c-17.7-11.7-26.2-31.7-22.3-52.6
		c2.4-13.2,13-27.9,24.7-34.5l5.3-2.9V216c0-95.7,0.4-142.7,1.1-145.3c1.3-4.9,6.3-10.5,11.4-12.8c2.2-1,5.1-1.9,6.5-1.9
		c7.7,0,15.9,5.3,19.1,12.5c1.8,3.8,1.9,10.8,1.9,146.5v142.5l3.8,2.2c11.7,6.7,20.1,16.7,24.4,29
		C307.3,397.9,307.3,412.7,304.1,421.4z"/>
	<path class="st1" d="M508.1,212c-15.2-86.8-74.4-159.8-156.8-193.5C315.6,4,272-2.4,233,1.1C155.9,8.2,85.7,50.2,42.4,115.3
		c-30.1,45.1-45.5,103.1-41.6,157c4.6,65.1,31.1,122.3,77.3,167.2C121,481.1,174.8,505.6,235,511c64.4,5.7,131.5-15.1,182.6-56.6
		c12-9.7,33.1-31.5,42.3-43.7C502.8,353.6,520.3,281.6,508.1,212z M317.8,408.1c-0.4,9-1,12.8-3.1,18.1
		c-5.8,15.1-16.5,27.2-30.1,33.8c-10.5,5.2-18,7-28.6,7c-26.9,0-50.2-16.6-59.1-42.2c-2.5-7.2-2.9-9.8-2.9-19.2
		c0-12.8,1.7-20.3,6.8-30.1c3.9-7.4,12.6-17.4,19-21.9l3.9-2.6l0.7-141.2c0.7-137.7,0.8-141.4,2.7-145.7
		c3.8-8.6,10.2-14.7,18.6-17.7c5.3-1.8,15-1.7,20.9,0.3c3.4,1.1,6.7,3.5,11.1,7.8c9.1,9.1,9.3,10.1,9.3,47.7V133h11h11v4v4h-11h-11
		v25v25h7.9c4.3,0,9.3,0.3,11,0.6c3,0.6,3.2,0.9,2.9,4.3l-0.3,3.6l-10.7,0.3l-10.8,0.3V225v25h11h11v4v4h-11h-11v25v24.9l10.8,0.3
		l10.7,0.3v4v4l-10.7,0.3l-10.8,0.3v16.7l0.1,16.7l4,2.5c7.2,4.4,16.5,15.2,20.8,24.2C317.2,388.4,318.4,394.4,317.8,408.1z"/>
	<path class="st1" d="M279.8,359.7l-3.8-2.2V215c0-135.7-0.1-142.7-1.9-146.5C270.9,61.3,262.7,56,255,56c-1.4,0-4.3,0.9-6.5,1.9
		c-5.1,2.3-10.1,7.9-11.4,12.8c-0.7,2.6-1.1,49.6-1.1,145.3v141.5l-5.3,2.9c-11.7,6.6-22.3,21.3-24.7,34.5
		c-3.9,20.9,4.6,40.9,22.3,52.6c27,17.9,64.6,5,75.8-26.1c3.2-8.7,3.2-23.5,0.1-32.7C299.9,376.4,291.5,366.4,279.8,359.7z
		 M291.7,430.6c-5.2,7-9.4,10.4-18.5,14.7c-6.2,3-7.5,3.2-17.2,3.2s-11-0.2-17.2-3.2c-9.1-4.3-13.3-7.7-18.5-14.7
		c-6.1-8.3-8.7-17.2-8.1-28.6c0.4-7.7,0.9-9.8,4.1-16.3c4.5-9.1,12.9-17.3,21.7-21.4l6-2.7v-64.3V233h12h12v64.3v64.3l6,2.7
		c8.8,4.1,17.2,12.3,21.7,21.4c3.2,6.5,3.7,8.6,4.1,16.3C300.4,413.4,297.8,422.3,291.7,430.6z"/>
</g>
</svg>
