<?xml version="1.0" standalone="no"?>
<!DOCTYPE svg PUBLIC "-//W3C//DTD SVG 20010904//EN"
 "http://www.w3.org/TR/2001/REC-SVG-20010904/DTD/svg10.dtd">
<svg version="1.0" xmlns="http://www.w3.org/2000/svg"
 width="700.000000pt" height="700.000000pt" viewBox="0 0 700.000000 700.000000"
 preserveAspectRatio="xMidYMid meet">
<metadata>
Created by potrace 1.14, written by Peter Selinger 2001-2017
</metadata>
<g transform="translate(0.000000,700.000000) scale(0.100000,-0.100000)"
fill="#000000" stroke="none">
<path d="M3241 6990 c-1368 -108 -2561 -1012 -3025 -2292 -139 -384 -207 -772
-209 -1183 -1 -403 60 -779 188 -1155 331 -965 1100 -1761 2050 -2123 1141
-434 2393 -256 3370 478 177 133 477 427 631 619 521 648 805 1561 745 2391
-81 1109 -645 2078 -1566 2690 -473 315 -964 492 -1550 560 -163 19 -485 26
-634 15z m431 -643 c67 -33 177 -135 206 -192 37 -73 42 -143 42 -567 l0 -408
150 0 150 0 0 -55 0 -55 -150 0 -150 0 0 -339 0 -338 133 -5 c72 -3 140 -9
150 -13 13 -5 17 -19 17 -56 l0 -49 -127 0 c-71 0 -138 -3 -151 -6 l-22 -6 2
-337 3 -336 148 -3 147 -3 0 -54 0 -55 -150 0 -150 0 0 -340 0 -340 73 0 c41
0 108 -3 150 -6 l77 -7 0 -53 0 -54 -134 0 c-74 0 -141 -3 -150 -6 -14 -5 -16
-32 -16 -198 0 -261 -2 -251 81 -308 171 -119 313 -355 340 -566 14 -111 -1
-309 -29 -393 -95 -275 -325 -487 -609 -560 -114 -29 -291 -27 -417 6 -156 39
-261 100 -381 220 -201 201 -274 403 -248 687 14 149 50 259 123 370 55 84
174 210 236 252 l42 27 6 1357 c3 746 10 1618 14 1937 l8 580 27 60 c51 109
136 189 242 228 39 13 74 17 155 15 91 -3 112 -7 162 -31z"/>
<path d="M3404 6211 c-59 -27 -119 -85 -146 -139 l-23 -47 -3 -1955 -3 -1956
-75 -44 c-133 -78 -264 -238 -314 -384 -44 -128 -45 -302 -4 -431 66 -202 238
-377 439 -447 357 -123 765 81 885 442 45 134 35 356 -21 487 -54 127 -167
253 -298 335 l-70 43 -3 1955 -3 1955 -23 47 c-26 52 -83 106 -141 134 -54 27
-147 29 -197 5z m256 -3276 l0 -874 93 -48 c170 -87 307 -259 337 -422 38
-205 -21 -401 -165 -547 -56 -57 -90 -81 -169 -120 l-99 -49 -157 0 -157 0
-99 49 c-256 126 -386 386 -334 667 30 163 167 335 338 422 l92 48 0 874 0
875 160 0 160 0 0 -875z"/>
</g>
</svg>
